# xmcd
#
# Track frame offsets:
#	150
#	18395
#	34084
#	50262
#	65622
#	78509
#	88619
#	99979
#	114380
#
# Disc length: 1725 seconds
#
# Revision: 1
# Processed by: cddbd v1.5.2PL0 Copyright (c) Steve Scherf et al.
# Submitted via: audiograbber 1.83.01
#
DISCID=6706bb09
DTITLE=Albert Jon Saxby - Essonville
DYEAR=1998
DGENRE=Country
TTITLE0=I've got to go
TTITLE1=I can't belive
TTITLE2=Time has a way
TTITLE3=Walk back to me
TTITLE4=Jalapeno
TTITLE5=Down and hurtin' cowboy
TTITLE6=That's what I like
TTITLE7=Love is blind
TTITLE8=Wind in the willow
EXTD=
EXTT0=
EXTT1=
EXTT2=
EXTT3=
EXTT4=
EXTT5=
EXTT6=
EXTT7=
EXTT8=
PLAYORDER=
